# AST/ASF file generated using VICON BodyLanguage
# -----------------------------------------------
:version 1.10
:name VICON
:units
  mass 1.0
  length 0.45
  angle deg
:documentation
   .ast/.asf automatically generated from VICON data using
   VICON BodyBuilder and BodyLanguage model FoxedUp or BRILLIANT.MOD
:root
   order TX TY TZ RX RY RZ
   axis XYZ
   position 0 0 0  
   orientation 0 0 0 
:bonedata
  begin
     id 1 
     name lhipjoint
     direction 0.630305 -0.712092 0.309259 
     length 2.29033 
     axis 0 0 0  XYZ
  end
  begin
     id 2 
     name lfemur
     direction 0.34202 -0.939693 0  
     length 6.43538  
     axis 0 0 20  XYZ
    dof rx ry rz
    limits (-160.0 20.0)
           (-70.0 70.0)
           (-60.0 70.0)
  end
  begin
     id 3 
     name ltibia
     direction 0.34202 -0.939693 0   
     length 7.43097   
     axis 0 0 20   XYZ
    dof rx
    limits (-10.0 170.0)
  end
  begin
     id 4 
     name lfoot
     direction 0.0334653 -0.0919451 0.995202   
     length 1.78438   
     axis -90 7.62852e-016 20   XYZ
    dof rx rz
    limits (-45.0 90.0)
           (-70.0 20.0)
  end
  begin
     id 5 
     name ltoes
     direction 1.53535e-011 -4.21933e-011 1   
     length 0.90832   
     axis -90 7.62852e-016 20   XYZ
    dof rx
    limits (-90.0 20.0)
  end
  begin
     id 6 
     name rhipjoint
     direction -0.682059 -0.67077 0.291312   
     length 2.43143  
     axis 0 0 0  XYZ 
  end
  begin
     id 7 
     name rfemur
     direction -0.34202 -0.939693 0   
     length 6.63488   
     axis 0 0 -20   XYZ
    dof rx ry rz
    limits (-160.0 20.0)
           (-70.0 70.0)
           (-70.0 60.0)
  end
  begin
     id 8 
     name rtibia
     direction -0.34202 -0.939693 0   
     length 6.86532   
     axis 0 0 -20   XYZ
    dof rx
    limits (-10.0 170.0)
 end
 begin
     id 9 
     name rfoot
     direction -0.105199 -0.289033 0.951521   
     length 1.77126  
     axis -90 -7.62852e-016 -20   XYZ
    dof rx rz
    limits (-45.0 90.0)
           (-20.0 70.0)
  end
  begin
     id 10 
     name rtoes
     direction -1.53551e-011 -4.21978e-011 1   
     length 0.889273   
     axis -90 -7.62852e-016 -20   XYZ
    dof rx
    limits (-90.0 20.0)
  end
  begin
     id 11 
     name lowerback
     direction -0.0514305 0.998089 0.034245   
     length 2.02077   
     axis 0 0 0   XYZ
    dof rx ry rz
    limits (-20.0 45.0)
           (-30.0 30.0)
           (-30.0 30.0)
  end
  begin
     id 12 
     name upperback
     direction 0.0203189 0.999449 -0.0262315   
     length 2.01413   
     axis 0 0 0   XYZ
    dof rx ry rz
    limits (-20.0 45.0)
           (-30.0 30.0)
           (-30.0 30.0)
  end
  begin
     id 13 
     name thorax
     direction 0.0452736 0.998142 -0.0407729   
     length 2.02986   
     axis 0 0 0   XYZ
    dof rx ry rz
    limits (-20.0 45.0)
           (-30.0 30.0)
           (-30.0 30.0)
  end
  begin
     id 14 
     name lowerneck
     direction -0.0180464 0.999645 -0.0195774   
     length 1.59034   
     axis 0 0 0   XYZ
    dof rx ry rz
    limits (-20.0 45.0)
           (-30.0 30.0)
           (-30.0 30.0)
  end
  begin
     id 15 
     name upperneck
     direction 0.0732272 0.979935 -0.18538   
     length 1.57486   
     axis 0 0 0   XYZ
    dof rx ry rz
    limits (-20.0 45.0)
           (-30.0 30.0)
           (-30.0 30.0)
  end
  begin
     id 16
     name head
     direction 0.0252963 0.997909 -0.059472  
     length 1.60334  
     axis 0 0 0   XYZ
    dof rx ry rz
    limits (-20.0 45.0)
           (-30.0 30.0)
           (-30.0 30.0)
  end
  begin
     id 17 
     name lclavicle
     direction 0.943819 0.330449 0.00315172  
     length 3.50322  
     axis 0 0 0   XYZ
    dof ry rz
    limits (-20.0 10.0)
           (0.0 20.0)
  end
  begin
     id 18 
     name lhumerus
     direction 1 -4.48949e-011 2.22502e-028   
     length 4.63208   
     axis 180 -30 -90   XYZ
    dof rx ry rz
    limits (-60.0 90.0)
           (-90.0 90.0)
           (-90.0 90.0)
  end
  begin
     id 19
     name lradius
     direction 1 -4.48967e-011 -4.10197e-027   
     length 3.41924   
     axis 180 -30 -90   XYZ
    dof rx
    limits (-10.0 170.0)
  end
  begin
     id 20
     name lwrist
     direction 1 -4.48987e-011 -1.24264e-027   
     length 1.70962   
     axis 2.50585e-015 90 90   XYZ
    dof ry
    limits (-180.0 0.0)
 end
  begin
     id 21 
     name lhand
     direction 1 -4.48983e-011 -2.48528e-027   
     length 0.62537   
     axis 1.58582e-015 90 90   XYZ
    dof rx rz
    limits (-90.0 90.0)
           (-45.0 45.0)
  end
  begin
     id 22 
     name lfingers
     direction 1 -4.48896e-011 -4.97056e-027   
     length 0.50419   
     axis 3.17164e-015 90 90   XYZ
    dof rx
    limits (0.0 90.0)
  end
  begin
     id 23
     name lthumb
     direction 0.707107 -6.34803e-011 0.707107   
     length 0.723919   
     axis -90 45 2.85299e-015   XYZ
    dof rx rz
    limits (-45.0 45.0)
           (-45.0 45.0)
  end
  begin
     id 24 
     name rclavicle
     direction -0.964499 0.260664 -0.0423695   
     length 3.91997  
     axis 0 0 0   XYZ 
    dof ry rz
    limits (-10.0 20.0)
           (-20.0 0.0)
  end
  begin
     id 25 
     name rhumerus
     direction -1 -4.48957e-011 -1.98656e-027  
     length 4.4064   
     axis 180 30 90   XYZ
    dof rx ry rz
    limits (-90.0 60.0)
           (-90.0 90.0)
           (-90.0 90.0)
  end
  begin
     id 26 
     name rradius
     direction -1 -4.48968e-011 1.96972e-027   
     length 3.44675   
     axis 180 30 90   XYZ
    dof rx
    limits (-10.0 170.0)
  end
  begin
     id 27 
     name rwrist
     direction -1 -4.48974e-011 -1.24264e-027   
     length 1.72338   
     axis 2.50585e-015 -90 -90   XYZ
    dof ry
    limits (-180.0 0.0)
  end
  begin
     id 28
     name rhand
     direction -1 -4.48901e-011 -2.48528e-027   
     length 0.513674   
     axis 1.58582e-015 -90 -90   XYZ
    dof rx rz
    limits (-90.0 90.0)
           (-45.0 45.0)
  end
  begin
     id 29
     name rfingers
     direction -1 -4.48946e-011 -4.97056e-027   
     length 0.414137   
     axis 3.17164e-015 -90 -90   XYZ
    dof rx
    limits (0.0 90.0)
  end
  begin
     id 30
     name rthumb
     direction -0.707107 -6.34859e-011 0.707107   
     length 0.59462   
     axis -90 -45 -2.85299e-015   XYZ
    dof rx rz
    limits (-45.0 45.0)
           (-45.0 45.0)
  end
:hierarchy
  begin
    root lhipjoint rhipjoint lowerback
    lhipjoint lfemur
    lfemur ltibia
    ltibia lfoot
    lfoot ltoes
    rhipjoint rfemur
    rfemur rtibia
    rtibia rfoot
    rfoot rtoes
    lowerback upperback
    upperback thorax
    thorax lowerneck lclavicle rclavicle
    lowerneck upperneck
    upperneck head
    lclavicle lhumerus
    lhumerus lradius
    lradius lwrist
    lwrist lhand lthumb
    lhand lfingers
    rclavicle rhumerus
    rhumerus rradius
    rradius rwrist
    rwrist rhand rthumb
    rhand rfingers
  end

#!OML:ASF E:\inclinewalkrobotboard\Project 1\Capture day 1\Session 1\subject1.ASF
:FULLY-SPECIFIED
:DEGREES
224
root 9.62717 16.4575 0.603936 -137.273 -52.9584 -200.058
lowerback 8.31448 0.792296 2.51864
upperback 0.829323 1.29764 2.20752
thorax -3.79773 0.586729 0.725155
lowerneck -1.09461 -7.16577 -5.62121
upperneck -11.2627 -10.6522 -3.05412
head -3.33648 -5.21998 0.229341
rclavicle 2.22639e-014 -5.24792e-014
rhumerus -17.7823 46.6815 -104.639
rradius 96.1017
rwrist 5.60684
rhand -21.1871 -33.3362
rfingers 7.12502
rthumb 5.19367 -63.2526
lclavicle 2.22639e-014 -5.24792e-014
lhumerus -51.1822 45.4175 37.9473
lradius 54.9395
lwrist 42.1797
lhand -53.155 -31.621
lfingers 7.12502
lthumb -25.6142 -3.32365
rfemur -41.1883 3.50586 -3.26297
rtibia 25.0777
rfoot -12.2658 -3.29752
rtoes -32.7089
lfemur -9.63595 -11.723 -8.3923
ltibia 8.0962
lfoot -38.4563 16.3406
ltoes 24.6798
225
root 9.62255 16.458 0.601489 -137.206 -52.7392 -200.153
lowerback 8.2342 0.815866 2.25291
upperback 0.822437 1.30425 2.2262
thorax -3.76645 0.595297 0.893789
lowerneck -1.1766 -6.99241 -5.6478
upperneck -11.1204 -10.3941 -3.0605
head -3.27276 -5.09216 0.218468
rclavicle 1.90833e-014 3.49861e-014
rhumerus -17.6936 46.608 -104.518
rradius 96.1944
rwrist 5.54401
rhand -20.8104 -33.4737
rfingers 7.12502
rthumb 5.55745 -63.3808
lclavicle 1.90833e-014 3.49861e-014
lhumerus -51.272 45.5044 37.7555
lradius 54.7276
lwrist 42.1054
lhand -53.0782 -32.2831
lfingers 7.12502
lthumb -25.5407 -3.97526
rfemur -41.21 3.60739 -3.51726
rtibia 25.0107
rfoot -12.2115 -3.34977
rtoes -32.3238
lfemur -9.61598 -11.7944 -8.57137
ltibia 8.13534
lfoot -38.4492 16.7049
ltoes 23.9179
226
root 9.61625 16.4583 0.601604 -137.231 -52.6269 -200.126
lowerback 8.14032 0.876439 2.1895
upperback 0.824739 1.37622 2.24429
thorax -3.71354 0.632525 0.941303
lowerneck -1.36977 -6.85024 -5.5677
upperneck -10.958 -10.1819 -3.17486
head -3.19369 -4.99154 0.152331
rclavicle 3.18055e-014 0
rhumerus -17.5956 46.3489 -104.346
rradius 96.3426
rwrist 5.60018
rhand -19.9093 -33.4624
rfingers 7.12502
rthumb 6.42738 -63.3449
lclavicle 3.18055e-014 0
lhumerus -51.1614 45.6126 37.7596
lradius 54.5459
lwrist 41.9934
lhand -53.1016 -32.763
lfingers 7.12502
lthumb -25.563 -4.45836
rfemur -41.1974 3.55043 -3.52071
rtibia 24.9549
rfoot -12.1213 -3.33259
rtoes -32.9422
lfemur -9.6016 -11.7279 -8.65162
ltibia 8.18072
lfoot -38.6482 16.5113
ltoes 23.0371
227
root 9.60964 16.4596 0.602073 -137.292 -52.511 -200.093
lowerback 8.08805 0.969501 2.166
upperback 0.832755 1.49522 2.2217
thorax -3.67614 0.692209 0.918657
lowerneck -1.72692 -6.71969 -5.40612
upperneck -10.5836 -9.97557 -3.47367
head -3.02656 -4.90013 0.00327665
rclavicle 4.92986e-014 2.54444e-014
rhumerus -17.5594 45.96 -104.3
rradius 96.4372
rwrist 5.589
rhand -19.5912 -33.4967
rfingers 7.12502
rthumb 6.73444 -63.3696
lclavicle 4.92986e-014 2.54444e-014
lhumerus -50.937 45.5798 37.9023
lradius 54.4734
lwrist 41.9488
lhand -53.0987 -32.4072
lfingers 7.12502
lthumb -25.5603 -4.10212
rfemur -41.1382 3.56394 -3.53231
rtibia 24.8754
rfoot -12.0665 -3.32129
rtoes -33.8157
lfemur -9.53928 -11.6775 -8.75896
ltibia 8.21698
lfoot -38.8999 15.923
ltoes 23.3176
228
root 9.60698 16.4616 0.603848 -137.259 -52.3461 -200.176
lowerback 8.10755 1.00443 2.04039
upperback 0.805542 1.53277 2.17268
thorax -3.71731 0.713152 0.933582
lowerneck -1.74486 -6.39158 -5.0599
upperneck -10.4312 -9.57537 -4.05687
head -3.02404 -4.69917 -0.24607
rclavicle -6.04305e-014 1.27222e-014
rhumerus -17.6238 45.7269 -104.386
rradius 96.5486
rwrist 5.64348
rhand -19.8972 -33.7485
rfingers 7.12502
rthumb 6.43903 -63.6306
lclavicle -6.04305e-014 1.27222e-014
lhumerus -50.988 45.5792 37.7881
lradius 54.4245
lwrist 41.9144
lhand -52.9869 -31.785
lfingers 7.12502
lthumb -25.4532 -3.46462
rfemur -41.1187 3.58448 -3.68203
rtibia 24.8342
rfoot -12.0529 -3.23441
rtoes -33.9178
lfemur -9.51623 -11.5453 -8.94924
ltibia 8.26825
lfoot -38.7772 15.6202
ltoes 24.6036
229
root 9.60414 16.4626 0.604498 -137.277 -52.2652 -200.198
lowerback 8.12338 1.00446 2.0014
upperback 0.767514 1.532 2.15815
thorax -3.76629 0.713497 0.939925
lowerneck -1.50775 -5.96195 -4.7331
upperneck -10.4321 -9.05791 -4.58872
head -3.11322 -4.42954 -0.467238
rclavicle 2.38542e-014 1.27222e-014
rhumerus -17.7478 45.6098 -104.496
rradius 96.652
rwrist 5.70336
rhand -20.3461 -34.2749
rfingers 7.12502
rthumb 6.00567 -64.1698
lclavicle 2.38542e-014 1.27222e-014
lhumerus -51.1922 45.6047 37.5453
lradius 54.349
lwrist 41.8049
lhand -52.9097 -31.4664
lfingers 7.12502
lthumb -25.3793 -3.13546
rfemur -41.0812 3.57909 -3.74675
rtibia 24.8116
rfoot -12.0395 -3.16862
rtoes -33.729
lfemur -9.49619 -11.4196 -9.02503
ltibia 8.30771
lfoot -38.3716 15.9384
ltoes 25.3612
